<svg xmlns="http://www.w3.org/2000/svg" viewBox="0 0 1000 1000">
  <path fill="#3a1e48" d="M500 955.36v-78.78l335.55-189.94.02-313.91L500 565.03l-.02-69.01 395.59-224.77.67 448.58L500 955.36Z"/>
  <path fill="#2b388f" d="m500 565.04-.02-69.02M500 955.36v-78.78"/>
  <path fill="#fff" d="M439.16 530.09 500 565.04"/>
  <path fill="#7938b2" d="m773.73 650.61-.03-242.43 61.87-35.45-.02 313.91-61.82-36.03ZM500 183.56l211.84 122.78 62.69-35.09L500 114.05v69.51Z"/>
  <path fill="#7938b2" d="M710.7 686.66 500 565.03l60.89-34.87 212.96 120.47-63.15 36.03ZM500 955.36v-78.78L164.45 686.63l-.01-313.94L500 565.03l-.02-69.01-395.55-224.76-.66 448.58L500 955.36Z"/>
  <path fill="#2b388f" d="m500 565.04-.02-69.02"/>
  <path fill="#3a1e48" d="m226.22 650.51-.57-242.76-61.22-35.11-.03 313.91 61.82-36.04ZM500 183.56 288.46 306.34l-63.21-35.09L500 114.05v69.51Z"/>
  <path fill="#262261" d="M500 183.56v-69.51"/>
  <path fill="#bf7af0" d="m500 807.32 273.73-156.71 61.82 36.03L500 876.58M773.82 580.45l-153.23-84.51-59.7 34.22 212.96 120.47M500 807.32 226.26 650.6l-61.81 36.03L500 876.58M500 44.65l-395.55 226.6L500 496l395.57-224.75L500 44.65Zm0 380.23L225.25 271.25 500 114.05l274.53 157.2L500 424.88ZM226.11 581.62l153.47-85.61 59.59 34.08L226.26 650.6"/>
  <path fill="#3a1e48" d="M289.19 686.64 500 565.03l-60.83-34.94L226.26 650.6l62.93 36.04ZM499.58 216.26l154.79 89.53L500 392.27l-154.55-86.4 154.11-89.61m0-32.75L288.28 306.35 500 424.73l211.63-118.54-212.09-122.68h.02Z"/>
  <path fill="#3a1e48" d="m500 597.74 153.86 88.82L500 774.67l-153.95-88.13 154-88.8m0-32.7-210.86 121.6L500 807.32l210.7-120.66L500 565l.05.04Z"/>
  <path fill="#3a1e48" d="m500 44.64 395.57 226.61.66 448.58L500 954.92 103.77 719.84l.66-448.58L500 44.64m0-28.33a28.29 28.29 0 0 0-14.08 3.75L90.35 246.67a28.341 28.341 0 0 0-14.25 24.54l-.67 448.59a28.35 28.35 0 0 0 13.88 24.4l396.27 235.09a28.33 28.33 0 0 0 28.91 0l396.2-235.09a28.331 28.331 0 0 0 13.88-24.4l-.67-448.58a28.342 28.342 0 0 0-14.25-24.54L514.08 20.06A28.29 28.29 0 0 0 500 16.31Z"/>
  <path fill="#3a1e48" d="m745.41 457.05.05 75.4-67.07-37 67-38.41m28.29-48.87-153.09 87.77 153.23 84.51-.12-172.27-.02-.01ZM254.1 456.71 322 495.6l-67.69 37.75-.18-76.64m-28.45-49 .42 173.78 153.46-85.6-153.91-88.14.03-.04Z"/>
</svg>