<svg id="Layer_1" data-name="Layer 1" xmlns="http://www.w3.org/2000/svg" viewBox="0 0 1000 1000"><defs><style>.cls-1{fill:#3e296f;}.cls-2{fill:#2b388f;}.cls-3{fill:#fff;}.cls-4{fill:#7155a3;}.cls-5{fill:#262261;}.cls-6{fill:#9b80ba;}</style></defs><polygon class="cls-1" points="500 955.36 500 876.58 835.55 686.64 835.57 372.73 500 565.03 499.98 496.02 895.57 271.25 896.24 719.83 500 955.36"/><line class="cls-2" x1="500" y1="565.04" x2="499.98" y2="496.02"/><line class="cls-2" x1="500" y1="955.36" x2="500" y2="876.58"/><line class="cls-3" x1="439.16" y1="530.09" x2="500" y2="565.04"/><polygon class="cls-4" points="773.73 650.61 773.7 408.18 835.57 372.73 835.55 686.64 773.73 650.61"/><polygon class="cls-4" points="500 183.56 711.84 306.34 774.53 271.25 500 114.05 500 183.56"/><polygon class="cls-4" points="710.7 686.66 500 565.03 560.89 530.16 773.85 650.63 710.7 686.66"/><polygon class="cls-4" points="500 955.36 500 876.58 164.45 686.63 164.44 372.69 500 565.03 499.98 496.02 104.43 271.26 103.77 719.84 500 955.36"/><line class="cls-2" x1="500" y1="565.04" x2="499.98" y2="496.02"/><polygon class="cls-1" points="226.22 650.51 225.65 407.75 164.43 372.64 164.4 686.55 226.22 650.51"/><polygon class="cls-1" points="500 183.56 288.46 306.34 225.25 271.25 500 114.05 500 183.56"/><line class="cls-5" x1="500" y1="183.56" x2="500" y2="114.05"/><polyline class="cls-6" points="500 807.32 773.73 650.61 835.55 686.64 500 876.58"/><polyline class="cls-6" points="773.82 580.45 620.59 495.94 560.89 530.16 773.85 650.63"/><polyline class="cls-6" points="500 807.32 226.26 650.6 164.45 686.63 500 876.58"/><path class="cls-6" d="M500,44.65h0L104.45,271.25,500,496h0L895.57,271.25Zm0,380.23L225.25,271.25,500,114.05h0l274.53,157.2Z"/><polyline class="cls-6" points="226.11 581.62 379.58 496.01 439.17 530.09 226.26 650.6"/><polygon class="cls-1" points="289.19 686.64 500 565.03 439.17 530.09 226.26 650.6 289.19 686.64"/><path class="cls-1" d="M499.58,216.26l154.79,89.53L500,392.27l-154.55-86.4,154.11-89.61m0-32.75L288.28,306.35,500,424.73,711.63,306.19,499.54,183.51Z"/><path class="cls-1" d="M500,597.74l153.86,88.82L500,774.67,346.05,686.54l154-88.8m0-32.7L289.19,686.64,500,807.32,710.7,686.66,500,565Z"/><path class="cls-1" d="M500,44.64,895.57,271.25l.66,448.58L500,954.92,103.77,719.84l.66-448.58L500,44.64m0-28.33a28.29,28.29,0,0,0-14.08,3.75L90.35,246.67A28.34,28.34,0,0,0,76.1,271.21L75.43,719.8a28.35,28.35,0,0,0,13.88,24.4L485.58,979.29a28.33,28.33,0,0,0,28.91,0l396.2-235.09a28.33,28.33,0,0,0,13.88-24.4l-.67-448.58a28.34,28.34,0,0,0-14.25-24.54L514.08,20.06A28.29,28.29,0,0,0,500,16.31Z"/><path class="cls-1" d="M745.41,457.05l.05,75.4-67.07-37,67-38.41m28.29-48.87L620.59,495.94l153.23,84.51-.12-172.27Z"/><path class="cls-1" d="M254.1,456.71,322,495.6l-67.69,37.75-.18-76.64m-28.45-49,.42,173.78,153.46-85.6L225.65,407.75Z"/></svg>