<svg xmlns="http://www.w3.org/2000/svg" viewBox="0 0 1000 307.4">
  <polygon fill="#3a1e48" points="123.48 276.42 123.48 255.19 213.91 204 213.92 119.4 123.48 171.23 123.47 152.63 230.09 92.05 230.27 212.95 123.48 276.42" />
  <polygon fill="#7938b2" points="197.25 194.29 197.24 128.96 213.92 119.4 213.91 204 197.25 194.29" />
  <polygon fill="#7938b2" points="123.48 68.42 180.57 101.51 197.47 92.05 123.48 49.69 123.48 68.42" />
  <polygon fill="#7938b2" points="180.27 204.01 123.48 171.23 139.89 161.83 197.28 194.3 180.27 204.01" />
  <polygon fill="#7938b2" points="123.48 276.42 123.48 255.19 33.05 204 33.05 119.39 123.48 171.23 123.48 152.63 16.87 92.05 16.69 212.95 123.48 276.42" />
  <polygon fill="#3a1e48" points="49.7 194.26 49.54 128.84 33.04 119.38 33.04 203.98 49.7 194.26" />
  <polygon fill="#3a1e48" points="123.48 68.42 66.47 101.51 49.43 92.05 123.48 49.69 123.48 68.42" />
  <polyline fill="#bf7af0" points="123.48 236.52 197.25 194.29 213.91 204 123.48 255.19" />
  <polyline fill="#bf7af0" points="197.28 175.38 155.98 152.6 139.89 161.83 197.28 194.3" />
  <polyline fill="#bf7af0" points="123.48 236.52 49.71 194.29 33.05 204 123.48 255.19" />
  <path fill="#bf7af0" d="M123.48,31h0L16.88,92.05l106.6,60.58h0L230.09,92.05Zm0,102.48L49.43,92.05l74.05-42.36h0l74,42.36Z" />
  <polyline fill="#bf7af0" points="49.67 175.7 91.03 152.63 107.09 161.81 49.71 194.29" />
  <polygon fill="#3a1e48" points="66.67 204 123.48 171.23 107.09 161.81 49.71 194.29 66.67 204" />
  <path fill="#3a1e48" d="M123.37,77.23l41.71,24.13-41.59,23.31L81.83,101.38l41.54-24.15m0-8.83L66.42,101.51l57.07,31.91,57-31.95L123.36,68.4Z" />
  <path fill="#3a1e48" d="M123.48,180,165,204l-41.47,23.75L82,204,123.48,180m0-8.81L66.67,204l56.81,32.52L180.27,204l-56.79-32.78Z" />
  <path fill="#3a1e48" d="M123.48,31,230.09,92.05l.18,120.9L123.49,276.3,16.69,213l.18-120.9L123.48,31m0-7.63a7.59,7.59,0,0,0-3.8,1L13.08,85.43A7.63,7.63,0,0,0,9.24,92l-.18,120.9a7.6,7.6,0,0,0,3.74,6.57l106.79,63.36a7.64,7.64,0,0,0,7.8,0l106.77-63.36a7.63,7.63,0,0,0,3.74-6.58L237.72,92a7.63,7.63,0,0,0-3.84-6.61L127.28,24.36a7.59,7.59,0,0,0-3.8-1Z" />
  <path fill="#3a1e48" d="M189.62,142.13v20.32l-18.07-10,18.06-10.35M197.24,129,156,152.61l41.3,22.77,0-46.42Z" />
  <path fill="#3a1e48" d="M57.21,142,75.5,152.51,57.26,162.69l0-20.66m-7.67-13.19.11,46.83L91,152.6,49.54,128.84Z" />
  <path fill="#bf7af0" d="M306.64,142.38c-26.59,0-46.25-21-46.25-48.61,0-28,19.66-46.64,46.25-46.64h51.62V63.77H306.64c-17,0-29.61,12.71-29.61,30.79s12.45,31.18,29.61,31.18h51.62v16.64Z" />
  <path fill="#bf7af0" d="M456.9,47.13h16.24v53.19c0,29.48-14.54,43.36-51.48,43.36-36.69,0-51.36-13.88-51.36-43.36V47.13h17.16v53.19c0,19.13,8.52,27,34.72,27s34.72-7.86,34.72-27Z" />
  <path fill="#bf7af0" d="M488.07,142.38V47.13h69.7c18.6,0,30.92,8.39,30.92,24.63,0,12-6.16,18.08-13.24,20.31,8.65,2.75,14.94,10.35,14.94,21.48,0,17.43-12.06,28.83-30.66,28.83ZM516.76,101V87H557.9c9.43,0,13.88-3.28,13.88-11.53,0-10.09-8-11.66-20.3-11.66H504.71v62.1h48.21c11.92,0,20.57-3.27,20.57-12.58,0-7.86-5.11-12.31-14.41-12.31Z" />
  <path fill="#bf7af0" d="M604.92,142.38V47.13h85V63.77H621.42v62h68.65v16.64ZM633.61,101V87h52.8v14Z" />
  <path fill="#4e2667" d="M368.14,259.09l-14.28-24H308.79l7.86-13.5h29.22L324.64,186l-43.23,73.11h-19l54.77-91.18c2-3.28,4.45-5.38,8.12-5.38s6,2.1,8,5.38l54.89,91.18Z" />
  <path fill="#4e2667" d="M486.82,259.09l-24.11-26.46H427.08V218h39.7c11.92,0,18.21-6.81,18.21-19.13s-6.81-18.34-18.21-18.34H414.89v78.61h-16.5V163.84h68.39c21.75,0,34.58,13.5,34.58,34.72,0,15.72-7.33,26.86-19.65,31.58l28.7,28.95Z" />
  <path fill="#4e2667" d="M547.47,259.09V180.48H511.31V163.84h89v16.64H564.11v78.61Z" />
  <path fill="#4e2667" d="M612.18,259.09V163.84h16.63v95.25Z" />
  <path fill="#4e2667" d="M646.23,259.09V242.45h71.41c8.9,0,13.88-5,13.88-12.44,0-8.13-5-12.32-13.88-12.32H673.88c-18,0-29.09-11.4-29.09-27.12,0-15.33,10.35-26.73,29.35-26.73h68.39v16.64H674.14c-7.6,0-12,4.45-12,11.66s4.58,11.53,11.92,11.53h43.63c19.25,0,29.61,9,29.61,27.51,0,16-9.7,27.91-29.61,27.91Z" />
  <path fill="#4e2667" d="M854.8,259.09l-14.28-24H795.45l7.86-13.5h29.21L811.3,186l-43.24,73.11h-19l54.76-91.18c2-3.28,4.46-5.38,8.13-5.38s6,2.1,8,5.38l54.89,91.18Z" />
  <path fill="#4e2667" d="M900.51,189.39v69.7H884.65V172.62c0-6.16,3.28-10,8.52-10,2.49,0,4.58.92,7.07,3.41l67.21,66.68V163.06h15.86v87.25c0,6.29-3.41,10-8.26,10a10.57,10.57,0,0,1-7.6-3.54Z" />
</svg>