<?xml version="1.0" standalone="no"?>
<!DOCTYPE svg PUBLIC "-//W3C//DTD SVG 20010904//EN"
 "http://www.w3.org/TR/2001/REC-SVG-20010904/DTD/svg10.dtd">
<svg version="1.0" xmlns="http://www.w3.org/2000/svg"
 width="700.000000pt" height="700.000000pt" viewBox="0 0 700.000000 700.000000"
 preserveAspectRatio="xMidYMid meet">
<metadata>
Created by potrace 1.14, written by Peter Selinger 2001-2017
</metadata>
<g transform="translate(0.000000,700.000000) scale(0.100000,-0.100000)"
fill="#000000" stroke="none">
<path d="M3445 6877 c-16 -6 -307 -169 -645 -362 -338 -194 -631 -361 -650
-372 -19 -11 -62 -36 -95 -55 -33 -20 -80 -47 -105 -60 -25 -14 -182 -104
-350 -200 -757 -435 -859 -493 -921 -527 -63 -36 -104 -72 -125 -112 -18 -33
-19 -96 -19 -1666 l0 -1631 31 -42 c22 -31 62 -61 145 -110 63 -37 305 -181
539 -320 234 -139 445 -264 470 -278 25 -14 91 -54 148 -89 56 -34 105 -63
107 -63 3 0 36 -20 75 -45 39 -25 72 -45 74 -45 3 0 85 -48 183 -107 98 -59
187 -112 198 -118 11 -6 57 -33 103 -60 46 -28 95 -57 110 -66 15 -9 178 -105
362 -215 188 -111 355 -203 380 -210 35 -9 55 -9 88 1 24 8 217 117 430 243
213 126 567 337 787 467 220 131 477 283 570 338 94 54 186 109 205 122 35 22
638 379 675 399 11 6 22 14 25 17 3 3 36 22 74 43 83 46 132 94 146 144 8 26
10 519 8 1647 l-3 1610 -24 43 c-14 23 -35 49 -47 56 -33 23 -296 176 -301
176 -2 0 -20 11 -41 23 -20 13 -57 35 -82 49 -25 14 -216 123 -425 243 -209
120 -389 223 -400 229 -41 24 -248 142 -278 160 -43 25 -863 494 -906 518 -19
11 -111 63 -205 117 -211 121 -241 132 -311 108z m341 -1558 c238 -137 371
-215 732 -423 28 -17 52 -33 52 -37 0 -4 -48 -34 -107 -66 -60 -33 -182 -101
-273 -152 -91 -51 -190 -107 -220 -123 -30 -17 -68 -38 -85 -48 -16 -10 -50
-29 -75 -43 -25 -13 -76 -42 -115 -64 -121 -69 -186 -103 -195 -103 -5 0 -84
42 -177 94 -92 51 -190 106 -218 121 -27 15 -99 56 -160 90 -60 34 -137 77
-170 95 -33 19 -127 71 -208 116 l-149 83 79 45 c43 25 283 165 533 310 250
146 460 266 466 266 7 0 137 -72 290 -161z m-1831 -1617 c72 -41 148 -85 170
-98 22 -13 59 -33 82 -45 23 -12 40 -26 37 -30 -2 -4 -33 -23 -67 -42 -34 -19
-82 -45 -107 -59 -25 -14 -67 -38 -95 -53 -27 -15 -80 -45 -117 -66 -36 -22
-69 -39 -72 -39 -3 0 -6 119 -6 265 l0 266 23 -12 c12 -7 81 -46 152 -87z
m3263 -162 c0 -143 -2 -260 -5 -260 -3 0 -58 29 -122 64 -64 35 -141 77 -172
94 -101 55 -170 94 -167 97 2 1 30 17 63 35 72 40 154 87 175 100 16 11 224
129 227 130 0 0 1 -117 1 -260z m-1185 -1031 c287 -166 526 -305 531 -309 9
-9 -10 -22 -92 -67 -29 -15 -236 -133 -460 -262 -224 -129 -431 -247 -460
-263 l-53 -29 -520 297 c-286 163 -527 303 -536 309 -16 12 5 28 119 90 37 19
518 298 548 316 83 52 378 218 388 218 7 1 247 -134 535 -300z"/>
</g>
</svg>
